# Blender 3.5.0
# www.blender.org
mtllib cash-short.mtl
o Cube.051
v -1.358843 0.122479 0.143119
v -0.827044 0.122479 -1.094705
v -0.642252 0.122479 -1.015314
v -1.174051 0.122479 0.222511
v -1.358843 0.365609 0.143119
v -0.827044 0.365609 -1.094705
v -0.642252 0.365609 -1.015314
v -1.174051 0.365609 0.222511
v -1.168507 0.122479 0.224892
v -0.636708 0.122479 -1.012932
v -0.451916 0.122479 -0.933541
v -0.983714 0.122479 0.304283
v -1.168507 0.365609 0.224892
v -0.636708 0.365609 -1.012932
v -0.451916 0.365609 -0.933541
v -0.983714 0.365609 0.304283
v -0.978171 0.122479 0.306665
v -0.446372 0.122479 -0.931159
v -0.261579 0.122479 -0.851768
v -0.793378 0.122479 0.386056
v -0.978171 0.365609 0.306665
v -0.446372 0.365609 -0.931159
v -0.261579 0.365609 -0.851768
v -0.793378 0.365609 0.386056
v -0.787835 0.122479 0.388438
v -0.256036 0.122479 -0.849386
v -0.071243 0.122479 -0.769995
v -0.603042 0.122479 0.467829
v -0.787835 0.365609 0.388438
v -0.256036 0.365609 -0.849386
v -0.071243 0.365609 -0.769995
v -0.603042 0.365609 0.467829
v -0.597498 0.122479 0.470211
v -0.065699 0.122479 -0.767613
v 0.119093 0.122479 -0.688222
v -0.412706 0.122479 0.549602
v -0.597498 0.365609 0.470211
v -0.065699 0.365609 -0.767613
v 0.119093 0.365609 -0.688222
v -0.412706 0.365609 0.549602
v -0.407162 0.122479 0.551984
v 0.124637 0.122479 -0.685840
v 0.309429 0.122479 -0.606449
v -0.222370 0.122479 0.631375
v -0.407162 0.365609 0.551984
v 0.124637 0.365609 -0.685840
v 0.309429 0.365609 -0.606449
v -0.222370 0.365609 0.631375
vn -0.9188 -0.0000 -0.3947
vn 0.3947 -0.0000 -0.9188
vn 0.9188 -0.0000 0.3947
vn -0.3947 -0.0000 0.9188
vn -0.0000 -1.0000 -0.0000
vn -0.0000 1.0000 -0.0000
vt 0.081972 0.081972
vt 0.000000 0.000000
vt 0.206213 0.038747
vt 0.918028 0.081972
vt 0.000000 0.000000
vt 0.206213 0.961253
vt 1.000000 0.000000
vt 0.793787 0.961253
vt 0.000000 0.000000
vt 1.000000 0.000000
vt 0.793787 0.038747
vt 0.081972 0.918028
vt 0.000000 1.000000
vt -0.004445 -0.925517
vt 0.918028 0.918028
vt 0.000000 1.000000
vt -0.004445 1.925517
vt 1.000000 1.000000
vt 1.004444 1.925517
vt 0.000000 1.000000
vt 1.000000 1.000000
vt 1.004444 -0.925517
vt 0.081972 0.081972
vt 0.000000 0.000000
vt 0.206213 0.038747
vt 0.918028 0.081972
vt 0.000000 0.000000
vt 0.206213 0.961253
vt 1.000000 0.000000
vt 0.793787 0.961253
vt 0.000000 0.000000
vt 1.000000 0.000000
vt 0.793787 0.038747
vt 0.081972 0.918028
vt 0.000000 1.000000
vt -0.004445 -0.925517
vt 0.918028 0.918028
vt 0.000000 1.000000
vt -0.004445 1.925517
vt 1.000000 1.000000
vt 1.004444 1.925517
vt 0.000000 1.000000
vt 1.000000 1.000000
vt 1.004444 -0.925517
vt 0.081972 0.081972
vt 0.000000 0.000000
vt 0.206213 0.038747
vt 0.918028 0.081972
vt 0.000000 0.000000
vt 0.206213 0.961253
vt 1.000000 0.000000
vt 0.793787 0.961253
vt 0.000000 0.000000
vt 1.000000 0.000000
vt 0.793787 0.038747
vt 0.081972 0.918028
vt 0.000000 1.000000
vt -0.004445 -0.925517
vt 0.918028 0.918028
vt 0.000000 1.000000
vt -0.004445 1.925517
vt 1.000000 1.000000
vt 1.004444 1.925517
vt 0.000000 1.000000
vt 1.000000 1.000000
vt 1.004444 -0.925517
vt 0.081972 0.081972
vt 0.000000 0.000000
vt 0.206213 0.038747
vt 0.918028 0.081972
vt 0.000000 0.000000
vt 0.206213 0.961253
vt 1.000000 0.000000
vt 0.793787 0.961253
vt 0.000000 0.000000
vt 1.000000 0.000000
vt 0.793787 0.038747
vt 0.081972 0.918028
vt 0.000000 1.000000
vt -0.004445 -0.925517
vt 0.918028 0.918028
vt 0.000000 1.000000
vt -0.004445 1.925517
vt 1.000000 1.000000
vt 1.004444 1.925517
vt 0.000000 1.000000
vt 1.000000 1.000000
vt 1.004444 -0.925517
vt 0.081972 0.081972
vt 0.000000 0.000000
vt 0.206213 0.038747
vt 0.918028 0.081972
vt 0.000000 0.000000
vt 0.206213 0.961253
vt 1.000000 0.000000
vt 0.793787 0.961253
vt 0.000000 0.000000
vt 1.000000 0.000000
vt 0.793787 0.038747
vt 0.081972 0.918028
vt 0.000000 1.000000
vt -0.004445 -0.925517
vt 0.918028 0.918028
vt 0.000000 1.000000
vt -0.004445 1.925517
vt 1.000000 1.000000
vt 1.004444 1.925517
vt 0.000000 1.000000
vt 1.000000 1.000000
vt 1.004444 -0.925517
vt 0.081972 0.081972
vt 0.000000 0.000000
vt 0.206213 0.038747
vt 0.918028 0.081972
vt 0.000000 0.000000
vt 0.206213 0.961253
vt 1.000000 0.000000
vt 0.793787 0.961253
vt 0.000000 0.000000
vt 1.000000 0.000000
vt 0.793787 0.038747
vt 0.081972 0.918028
vt 0.000000 1.000000
vt -0.004445 -0.925517
vt 0.918028 0.918028
vt 0.000000 1.000000
vt -0.004445 1.925517
vt 1.000000 1.000000
vt 1.004444 1.925517
vt 0.000000 1.000000
vt 1.000000 1.000000
vt 1.004444 -0.925517
s 0
usemtl Material.001
f 8/22/6 7/19/6 6/17/6 5/14/6
f 16/44/6 15/41/6 14/39/6 13/36/6
f 24/66/6 23/63/6 22/61/6 21/58/6
f 32/88/6 31/85/6 30/83/6 29/80/6
f 40/110/6 39/107/6 38/105/6 37/102/6
f 48/132/6 47/129/6 46/127/6 45/124/6
usemtl Material.002
f 5/12/1 6/15/1 2/4/1 1/1/1
f 6/16/2 7/18/2 3/7/2 2/5/2
f 7/18/3 8/20/3 4/9/3 3/7/3
f 8/21/4 5/13/4 1/2/4 4/10/4
f 13/34/1 14/37/1 10/26/1 9/23/1
f 14/38/2 15/40/2 11/29/2 10/27/2
f 15/40/3 16/42/3 12/31/3 11/29/3
f 16/43/4 13/35/4 9/24/4 12/32/4
f 21/56/1 22/59/1 18/48/1 17/45/1
f 22/60/2 23/62/2 19/51/2 18/49/2
f 23/62/3 24/64/3 20/53/3 19/51/3
f 24/65/4 21/57/4 17/46/4 20/54/4
f 29/78/1 30/81/1 26/70/1 25/67/1
f 30/82/2 31/84/2 27/73/2 26/71/2
f 31/84/3 32/86/3 28/75/3 27/73/3
f 32/87/4 29/79/4 25/68/4 28/76/4
f 37/100/1 38/103/1 34/92/1 33/89/1
f 38/104/2 39/106/2 35/95/2 34/93/2
f 39/106/3 40/108/3 36/97/3 35/95/3
f 40/109/4 37/101/4 33/90/4 36/98/4
f 45/122/1 46/125/1 42/114/1 41/111/1
f 46/126/2 47/128/2 43/117/2 42/115/2
f 47/128/3 48/130/3 44/119/3 43/117/3
f 48/131/4 45/123/4 41/112/4 44/120/4
usemtl Material.003
f 1/3/5 2/6/5 3/8/5 4/11/5
f 9/25/5 10/28/5 11/30/5 12/33/5
f 17/47/5 18/50/5 19/52/5 20/55/5
f 25/69/5 26/72/5 27/74/5 28/77/5
f 33/91/5 34/94/5 35/96/5 36/99/5
f 41/113/5 42/116/5 43/118/5 44/121/5
