# Blender 3.5.0
# www.blender.org
mtllib doorframe.mtl
o Cube
v -1.260593 -0.021634 0.159103
v -1.260593 -0.021634 -0.145105
v -1.004476 -0.021634 -0.145105
v -1.004476 -0.021634 0.159103
v -1.260593 5.750514 0.159103
v -1.260593 5.750514 -0.145105
v -1.004476 5.750514 -0.145105
v -1.004476 5.750514 0.159103
v 1.384581 -0.021634 0.159103
v 1.384581 -0.021634 -0.145105
v 1.640699 -0.021634 -0.145105
v 1.640699 -0.021634 0.159103
v 1.384581 5.750514 0.159103
v 1.384581 5.750514 -0.145105
v 1.640699 5.750514 -0.145105
v 1.640699 5.750514 0.159103
v -1.260593 5.950796 0.159103
v -1.260593 5.950796 -0.145105
v -1.004476 5.950796 -0.145105
v -1.004476 5.950796 0.159103
v 1.384581 5.950796 0.159103
v 1.384581 5.950796 -0.145105
v 1.640699 5.950796 -0.145105
v 1.640699 5.950796 0.159103
vn -1.0000 -0.0000 -0.0000
vn -0.0000 -0.0000 -1.0000
vn 1.0000 -0.0000 -0.0000
vn -0.0000 -0.0000 1.0000
vn -0.0000 -1.0000 -0.0000
vn -0.0000 1.0000 -0.0000
s 0
usemtl DarkMetal
f 5//1 6//1 2//1 1//1
f 6//2 7//2 3//2 2//2
f 7//3 8//3 4//3 3//3
f 8//4 5//4 1//4 4//4
f 1//5 2//5 3//5 4//5
f 16//3 15//3 23//3 24//3
f 13//1 14//1 10//1 9//1
f 14//2 15//2 11//2 10//2
f 15//3 16//3 12//3 11//3
f 16//4 13//4 9//4 12//4
f 9//5 10//5 11//5 12//5
f 13//4 16//4 24//4 21//4
f 20//6 19//6 18//6 17//6
f 24//6 23//6 22//6 21//6
f 15//2 14//2 22//2 23//2
f 14//1 13//1 21//1 22//1
f 5//4 8//4 20//4 17//4
f 8//3 7//3 19//3 20//3
f 7//2 6//2 18//2 19//2
f 6//1 5//1 17//1 18//1
f 13//4 21//4 20//4 8//4
f 21//6 22//6 19//6 20//6
f 8//5 7//5 14//5 13//5
f 7//2 19//2 22//2 14//2
